<?xml version="1.0" encoding="UTF-8"?>
<svg xmlns="http://www.w3.org/2000/svg" viewBox="0 0 16 16" width="64" height="64" role="img" aria-label="Kvizátor">
  <!-- black rounded square background -->
  <rect width="16" height="16" rx="2" fill="#000" />
  <!-- white book icon (same paths used in navbar) -->
  <path d="M1 2.828c.885-.37 2.154-.828 4-.828 1.243 0 2.09.33 2.5.5V13.5c-.41-.17-1.257-.5-2.5-.5-1.846 0-3.115.458-4 .828V2.828z" fill="#fff"/>
  <path d="M9 2.5V13.5c.41-.17 1.257-.5 2.5-.5 1.846 0 3.115.458 4 .828V2.5a1 1 0 0 0-1-1c-1.893 0-3.392.4-4.5.9C10.272 2.001 9.57 2.5 9 2.5z" fill="#fff"/>
</svg>

